<svg width="754" height="300" viewBox="0 0 754 300" fill="none" xmlns="http://www.w3.org/2000/svg">
<path d="M295.213 154.787C292.569 154.787 290.426 152.644 290.426 150C290.426 125.34 233.999 98.9361 150 98.9361C66.0006 98.9361 9.57422 125.339 9.57422 150C9.57422 152.644 7.43145 154.787 4.78711 154.787C2.14277 154.787 0 152.644 0 150C0 132.962 16.1941 117.349 45.6006 106.039C73.5627 95.284 110.639 89.3613 150 89.3613C189.361 89.3613 226.437 95.284 254.399 106.039C283.806 117.349 300 132.962 300 150C300 152.644 297.857 154.787 295.213 154.787Z" fill="white"/>
<path d="M210.398 283.626C197.357 283.627 181.465 276.414 164.129 262.393C140.834 243.554 117.166 214.407 97.4859 180.319C77.8055 146.232 64.3963 111.161 59.7293 81.5683C54.8215 50.4468 60.2449 28.616 75.0006 20.0964C77.2893 18.7757 80.2189 19.5585 81.5402 21.8484C82.8621 24.1382 82.0775 27.0656 79.7883 28.388C68.8658 34.6945 65.0016 53.5341 69.1881 80.0765C73.6764 108.537 86.6719 142.437 105.779 175.532C124.886 208.628 147.747 236.831 170.15 254.948C185.633 267.469 199.665 274.047 210.338 274.048C214.068 274.048 217.386 273.245 220.215 271.612C222.503 270.291 225.432 271.075 226.754 273.364C228.076 275.654 227.291 278.582 225.002 279.904C220.687 282.394 215.785 283.625 210.398 283.626Z" fill="#235C6D"/>
<path d="M77.3888 280.546C76.5767 280.546 75.7535 280.339 75 279.904C60.2443 271.384 54.8209 249.553 59.7287 218.432C64.3969 188.839 77.8049 153.768 97.4853 119.681C117.166 85.5932 140.834 56.4457 164.129 37.6072C188.626 17.7955 210.243 11.5764 225 20.0959C227.29 21.4178 228.074 24.3457 226.752 26.6355C225.43 28.926 222.5 29.7082 220.212 28.3875C209.29 22.0822 191.042 28.1549 170.148 45.051C147.745 63.1693 124.884 91.3728 105.777 124.468C86.6701 157.563 73.6752 191.463 69.1863 219.923C64.9998 246.466 68.864 265.306 79.7865 271.612C82.0764 272.934 82.8603 275.862 81.5385 278.151C80.6525 279.687 79.0435 280.546 77.3888 280.546Z" fill="#127C8D"/>
<path d="M150 210.638C110.64 210.638 73.5627 204.715 45.6006 193.961C16.1941 182.651 0 167.038 0 150H9.57422C9.57422 174.661 66.0006 201.064 150 201.064C233.999 201.064 290.426 174.66 290.426 150H300C300 167.038 283.806 182.651 254.399 193.961C226.437 204.715 189.36 210.638 150 210.638Z" fill="#053847"/>
<path d="M225 279.904L220.213 271.612C231.135 265.305 235 246.465 230.813 219.923C226.325 191.463 213.329 157.563 194.222 124.468C175.116 91.3723 152.255 63.1693 129.851 45.0516C108.957 28.1543 90.7084 22.081 79.7871 28.3881L75 20.0965C89.7551 11.5769 111.373 17.7955 135.871 37.6078C159.166 56.4463 182.834 85.5937 202.514 119.681C222.195 153.769 235.604 188.839 240.271 218.432C245.179 249.553 239.756 271.385 225 279.904Z" fill="#4BBCD6"/>
<path d="M89.6016 283.626C84.2145 283.626 79.3143 282.395 75 279.904L79.7871 271.612C90.7096 277.918 108.957 271.844 129.851 254.949C152.255 236.832 175.116 208.628 194.223 175.533C213.33 142.438 226.325 108.538 230.814 80.0771C235 53.5347 231.136 34.6945 220.213 28.3886L225.001 20.097C239.756 28.6166 245.18 50.4474 240.272 81.5689C235.604 111.162 222.196 146.232 202.515 180.32C182.835 214.407 159.167 243.555 135.872 262.393C118.536 276.412 102.642 283.625 89.6016 283.626Z" fill="#9ED9E6"/>
<path d="M150 169.149C160.576 169.149 169.149 160.576 169.149 150C169.149 139.424 160.576 130.851 150 130.851C139.424 130.851 130.851 139.424 130.851 150C130.851 160.576 139.424 169.149 150 169.149Z" fill="white"/>
<path d="M363.564 143V77.5455H403.067V84.5767H371.49V106.693H401.021V113.724H371.49V135.969H403.578V143H363.564ZM423.873 113.469V143H416.33V93.9091H423.617V101.58H424.256C425.407 99.0866 427.154 97.0838 429.498 95.571C431.842 94.0369 434.867 93.2699 438.574 93.2699C441.898 93.2699 444.807 93.9517 447.3 95.3153C449.793 96.6577 451.731 98.7031 453.116 101.452C454.501 104.179 455.194 107.631 455.194 111.807V143H447.651V112.318C447.651 108.462 446.65 105.457 444.647 103.305C442.644 101.132 439.896 100.045 436.401 100.045C433.994 100.045 431.842 100.567 429.945 101.612C428.07 102.656 426.589 104.179 425.503 106.182C424.416 108.185 423.873 110.614 423.873 113.469ZM489.559 144.023C484.829 144.023 480.749 142.979 477.318 140.891C473.909 138.781 471.278 135.841 469.424 132.07C467.592 128.277 466.676 123.866 466.676 118.838C466.676 113.81 467.592 109.378 469.424 105.543C471.278 101.686 473.856 98.6818 477.158 96.5298C480.482 94.3565 484.36 93.2699 488.792 93.2699C491.349 93.2699 493.874 93.696 496.367 94.5483C498.859 95.4006 501.129 96.7855 503.174 98.7031C505.22 100.599 506.85 103.114 508.064 106.246C509.278 109.378 509.886 113.234 509.886 117.815V121.011H472.045V114.491H502.215C502.215 111.722 501.661 109.25 500.553 107.077C499.467 104.903 497.911 103.188 495.887 101.931C493.884 100.674 491.519 100.045 488.792 100.045C485.788 100.045 483.188 100.791 480.994 102.283C478.82 103.753 477.148 105.67 475.976 108.036C474.804 110.401 474.218 112.936 474.218 115.642V119.989C474.218 123.696 474.857 126.839 476.136 129.417C477.435 131.974 479.236 133.923 481.537 135.266C483.838 136.587 486.512 137.247 489.559 137.247C491.541 137.247 493.33 136.97 494.928 136.416C496.548 135.841 497.943 134.989 499.115 133.859C500.287 132.709 501.193 131.281 501.832 129.577L509.119 131.622C508.352 134.094 507.063 136.267 505.252 138.142C503.44 139.996 501.203 141.445 498.54 142.489C495.877 143.511 492.883 144.023 489.559 144.023ZM521.359 143V93.9091H528.646V101.324H529.158C530.053 98.8949 531.672 96.924 534.016 95.4112C536.359 93.8984 539.002 93.142 541.942 93.142C542.496 93.142 543.188 93.1527 544.019 93.174C544.85 93.1953 545.479 93.2273 545.905 93.2699V100.94C545.649 100.876 545.063 100.781 544.147 100.653C543.252 100.504 542.304 100.429 541.303 100.429C538.916 100.429 536.786 100.93 534.911 101.931C533.057 102.911 531.587 104.275 530.5 106.022C529.435 107.748 528.902 109.719 528.902 111.935V143H521.359ZM573.167 162.432C569.524 162.432 566.391 161.963 563.771 161.026C561.15 160.109 558.966 158.895 557.219 157.382C555.493 155.891 554.119 154.293 553.096 152.588L559.104 148.369C559.786 149.264 560.649 150.287 561.693 151.438C562.737 152.609 564.165 153.621 565.976 154.474C567.808 155.347 570.205 155.784 573.167 155.784C577.13 155.784 580.401 154.825 582.979 152.908C585.557 150.99 586.846 147.986 586.846 143.895V133.923H586.207C585.653 134.818 584.864 135.926 583.842 137.247C582.84 138.547 581.391 139.708 579.495 140.731C577.62 141.732 575.085 142.233 571.889 142.233C567.926 142.233 564.367 141.295 561.214 139.42C558.082 137.545 555.6 134.818 553.767 131.239C551.956 127.659 551.051 123.312 551.051 118.199C551.051 113.17 551.935 108.792 553.703 105.063C555.472 101.313 557.933 98.4155 561.086 96.37C564.239 94.3033 567.883 93.2699 572.016 93.2699C575.212 93.2699 577.748 93.8026 579.623 94.8679C581.519 95.9119 582.968 97.1051 583.97 98.4474C584.992 99.7685 585.781 100.855 586.335 101.707H587.102V93.9091H594.389V144.406C594.389 148.625 593.43 152.055 591.512 154.697C589.616 157.361 587.059 159.31 583.842 160.546C580.646 161.803 577.087 162.432 573.167 162.432ZM572.911 135.457C575.937 135.457 578.494 134.765 580.582 133.38C582.67 131.995 584.257 130.003 585.344 127.403C586.43 124.804 586.974 121.693 586.974 118.071C586.974 114.534 586.441 111.413 585.376 108.707C584.31 106.001 582.734 103.881 580.646 102.347C578.558 100.812 575.979 100.045 572.911 100.045C569.715 100.045 567.052 100.855 564.921 102.474C562.812 104.094 561.225 106.267 560.159 108.994C559.115 111.722 558.593 114.747 558.593 118.071C558.593 121.48 559.126 124.495 560.191 127.116C561.278 129.715 562.876 131.761 564.985 133.252C567.116 134.722 569.758 135.457 572.911 135.457ZM608.195 143V93.9091H615.738V143H608.195ZM612.031 85.7273C610.56 85.7273 609.293 85.2266 608.227 84.2251C607.183 83.2237 606.661 82.0199 606.661 80.6136C606.661 79.2074 607.183 78.0036 608.227 77.0021C609.293 76.0007 610.56 75.5 612.031 75.5C613.501 75.5 614.758 76.0007 615.802 77.0021C616.867 78.0036 617.4 79.2074 617.4 80.6136C617.4 82.0199 616.867 83.2237 615.802 84.2251C614.758 85.2266 613.501 85.7273 612.031 85.7273ZM643.999 144.151C640.888 144.151 638.065 143.565 635.529 142.393C632.994 141.2 630.98 139.484 629.489 137.247C627.997 134.989 627.252 132.261 627.252 129.065C627.252 126.253 627.806 123.973 628.914 122.226C630.022 120.457 631.502 119.072 633.356 118.071C635.21 117.07 637.255 116.324 639.492 115.834C641.751 115.322 644.02 114.918 646.3 114.619C649.283 114.236 651.701 113.948 653.555 113.756C655.43 113.543 656.794 113.192 657.646 112.702C658.519 112.212 658.956 111.359 658.956 110.145V109.889C658.956 106.736 658.093 104.286 656.367 102.538C654.663 100.791 652.074 99.9176 648.601 99.9176C645 99.9176 642.177 100.706 640.132 102.283C638.086 103.859 636.648 105.543 635.817 107.332L628.658 104.776C629.936 101.793 631.641 99.4702 633.772 97.8082C635.924 96.125 638.267 94.9531 640.803 94.2926C643.36 93.6108 645.874 93.2699 648.345 93.2699C649.922 93.2699 651.733 93.4616 653.779 93.8452C655.845 94.2074 657.838 94.9638 659.755 96.1143C661.694 97.2649 663.303 99.0014 664.581 101.324C665.86 103.646 666.499 106.757 666.499 110.656V143H658.956V136.352H658.573C658.061 137.418 657.209 138.558 656.016 139.772C654.823 140.987 653.235 142.02 651.254 142.872C649.272 143.724 646.854 144.151 643.999 144.151ZM645.149 137.375C648.132 137.375 650.647 136.789 652.692 135.617C654.759 134.445 656.314 132.933 657.358 131.079C658.424 129.225 658.956 127.276 658.956 125.23V118.327C658.637 118.71 657.934 119.062 656.847 119.381C655.782 119.68 654.546 119.946 653.139 120.18C651.755 120.393 650.402 120.585 649.081 120.756C647.781 120.905 646.726 121.033 645.916 121.139C643.956 121.395 642.124 121.81 640.419 122.386C638.736 122.94 637.372 123.781 636.328 124.911C635.306 126.018 634.794 127.531 634.794 129.449C634.794 132.07 635.764 134.051 637.703 135.393C639.663 136.714 642.145 137.375 645.149 137.375ZM410.194 186.545V252H402.523L366.856 200.608H366.217V252H358.29V186.545H365.961L401.756 238.065H402.396V186.545H410.194ZM455.969 231.929V202.909H463.511V252H455.969V243.69H455.457C454.307 246.183 452.517 248.303 450.088 250.05C447.659 251.776 444.591 252.639 440.884 252.639C437.815 252.639 435.088 251.968 432.702 250.626C430.315 249.262 428.44 247.217 427.077 244.489C425.713 241.741 425.031 238.278 425.031 234.102V202.909H432.574V233.591C432.574 237.17 433.575 240.026 435.578 242.156C437.602 244.287 440.18 245.352 443.313 245.352C445.188 245.352 447.095 244.873 449.033 243.914C450.994 242.955 452.634 241.485 453.955 239.504C455.298 237.522 455.969 234.997 455.969 231.929ZM497.269 253.023C492.667 253.023 488.704 251.936 485.38 249.763C482.056 247.589 479.5 244.596 477.71 240.782C475.92 236.968 475.025 232.611 475.025 227.71C475.025 222.724 475.941 218.325 477.774 214.511C479.627 210.675 482.206 207.682 485.508 205.53C488.832 203.357 492.71 202.27 497.142 202.27C500.593 202.27 503.704 202.909 506.474 204.188C509.244 205.466 511.513 207.256 513.282 209.557C515.05 211.858 516.147 214.543 516.573 217.611H509.031C508.456 215.374 507.177 213.392 505.196 211.666C503.235 209.919 500.593 209.045 497.269 209.045C494.329 209.045 491.751 209.812 489.535 211.347C487.34 212.859 485.625 215.001 484.389 217.771C483.175 220.519 482.568 223.747 482.568 227.455C482.568 231.247 483.164 234.55 484.358 237.362C485.572 240.175 487.277 242.359 489.471 243.914C491.687 245.469 494.286 246.247 497.269 246.247C499.23 246.247 501.009 245.906 502.607 245.224C504.205 244.543 505.558 243.562 506.666 242.284C507.774 241.006 508.562 239.472 509.031 237.682H516.573C516.147 240.58 515.093 243.19 513.409 245.512C511.747 247.813 509.542 249.646 506.794 251.009C504.066 252.352 500.892 253.023 497.269 253.023ZM535.142 186.545V252H527.6V186.545H535.142ZM569.54 253.023C564.809 253.023 560.729 251.979 557.299 249.891C553.89 247.781 551.258 244.841 549.405 241.07C547.572 237.277 546.656 232.866 546.656 227.838C546.656 222.81 547.572 218.378 549.405 214.543C551.258 210.686 553.836 207.682 557.139 205.53C560.463 203.357 564.341 202.27 568.772 202.27C571.329 202.27 573.854 202.696 576.347 203.548C578.84 204.401 581.109 205.786 583.155 207.703C585.2 209.599 586.83 212.114 588.044 215.246C589.259 218.378 589.866 222.234 589.866 226.815V230.011H552.025V223.491H582.196C582.196 220.722 581.642 218.25 580.534 216.077C579.447 213.903 577.892 212.188 575.868 210.931C573.865 209.674 571.5 209.045 568.772 209.045C565.768 209.045 563.169 209.791 560.974 211.283C558.801 212.753 557.128 214.67 555.956 217.036C554.785 219.401 554.199 221.936 554.199 224.642V228.989C554.199 232.696 554.838 235.839 556.116 238.417C557.416 240.974 559.216 242.923 561.517 244.266C563.819 245.587 566.493 246.247 569.54 246.247C571.521 246.247 573.311 245.97 574.909 245.416C576.528 244.841 577.924 243.989 579.096 242.859C580.267 241.709 581.173 240.281 581.812 238.577L589.099 240.622C588.332 243.094 587.043 245.267 585.232 247.142C583.421 248.996 581.184 250.445 578.52 251.489C575.857 252.511 572.863 253.023 569.54 253.023ZM615.786 253.151C612.675 253.151 609.852 252.565 607.316 251.393C604.781 250.2 602.767 248.484 601.276 246.247C599.785 243.989 599.039 241.261 599.039 238.065C599.039 235.253 599.593 232.973 600.701 231.226C601.809 229.457 603.29 228.072 605.143 227.071C606.997 226.07 609.042 225.324 611.28 224.834C613.538 224.322 615.807 223.918 618.087 223.619C621.07 223.236 623.488 222.948 625.342 222.756C627.217 222.543 628.581 222.192 629.433 221.702C630.307 221.212 630.743 220.359 630.743 219.145V218.889C630.743 215.736 629.88 213.286 628.155 211.538C626.45 209.791 623.861 208.918 620.388 208.918C616.787 208.918 613.964 209.706 611.919 211.283C609.873 212.859 608.435 214.543 607.604 216.332L600.445 213.776C601.723 210.793 603.428 208.47 605.559 206.808C607.711 205.125 610.054 203.953 612.59 203.293C615.147 202.611 617.661 202.27 620.133 202.27C621.709 202.27 623.52 202.462 625.566 202.845C627.633 203.207 629.625 203.964 631.542 205.114C633.481 206.265 635.09 208.001 636.368 210.324C637.647 212.646 638.286 215.757 638.286 219.656V252H630.743V245.352H630.36C629.848 246.418 628.996 247.558 627.803 248.772C626.61 249.987 625.022 251.02 623.041 251.872C621.059 252.724 618.641 253.151 615.786 253.151ZM616.937 246.375C619.919 246.375 622.434 245.789 624.479 244.617C626.546 243.445 628.101 241.933 629.145 240.079C630.211 238.225 630.743 236.276 630.743 234.23V227.327C630.424 227.71 629.721 228.062 628.634 228.381C627.569 228.68 626.333 228.946 624.927 229.18C623.542 229.393 622.189 229.585 620.868 229.756C619.568 229.905 618.513 230.033 617.704 230.139C615.743 230.395 613.911 230.81 612.206 231.386C610.523 231.94 609.16 232.781 608.116 233.911C607.093 235.018 606.581 236.531 606.581 238.449C606.581 241.07 607.551 243.051 609.49 244.393C611.45 245.714 613.932 246.375 616.937 246.375ZM652.053 252V202.909H659.34V210.324H659.851C660.746 207.895 662.365 205.924 664.709 204.411C667.053 202.898 669.695 202.142 672.635 202.142C673.189 202.142 673.882 202.153 674.713 202.174C675.544 202.195 676.172 202.227 676.598 202.27V209.94C676.343 209.876 675.757 209.781 674.84 209.653C673.946 209.504 672.997 209.429 671.996 209.429C669.61 209.429 667.479 209.93 665.604 210.931C663.75 211.911 662.28 213.275 661.193 215.022C660.128 216.748 659.595 218.719 659.595 220.935V252H652.053Z" fill="white"/>
</svg>
