<?xml version="1.0" encoding="iso-8859-1"?>
<!-- Generator: Adobe Illustrator 19.0.0, SVG Export Plug-In . SVG Version: 6.00 Build 0)  -->
<svg version="1.1" id="Layer_1" xmlns="http://www.w3.org/2000/svg" xmlns:xlink="http://www.w3.org/1999/xlink" x="0px" y="0px"
	 viewBox="0 0 512 512" style="enable-background:new 0 0 512 512;" xml:space="preserve">
<path style="fill:#fff;" d="M503.83,264.17c-4.513,0-8.17-3.657-8.17-8.17c0-42.087-96.301-87.149-239.66-87.149
	S16.34,213.912,16.34,256c0,4.513-3.657,8.17-8.17,8.17S0,260.513,0,256c0-29.078,27.638-55.724,77.825-75.027
	c47.722-18.355,110.999-28.463,178.175-28.463s130.453,10.108,178.175,28.463C484.362,200.276,512,226.922,512,256
	C512,260.513,508.343,264.17,503.83,264.17z"/>
<path style="fill:#235C6D;" d="M359.08,484.055c-22.257,0.001-49.379-12.309-78.967-36.238
	c-39.756-32.151-80.149-81.896-113.737-140.072s-56.473-118.03-64.438-168.535c-8.376-53.114,0.88-90.372,26.063-104.912
	c3.906-2.254,8.906-0.918,11.161,2.99c2.256,3.908,0.917,8.904-2.99,11.161c-18.641,10.763-25.236,42.916-18.091,88.215
	c7.66,48.572,29.839,106.428,62.448,162.911s71.626,104.617,109.861,135.537c26.424,21.369,50.372,32.595,68.587,32.597
	c6.366,0,12.028-1.37,16.856-4.157c3.905-2.255,8.904-0.918,11.16,2.99c2.256,3.908,0.917,8.904-2.99,11.161
	C376.639,481.952,368.273,484.053,359.08,484.055z"/>
<path style="fill:#127C8D;" d="M132.077,478.798c-1.386,0-2.791-0.353-4.077-1.096c-25.183-14.54-34.439-51.798-26.063-104.912
	c7.967-50.505,30.85-110.359,64.438-168.535S240.357,96.334,280.113,64.183C321.922,30.371,358.815,19.757,384,34.297
	c3.908,2.256,5.246,7.253,2.99,11.161c-2.256,3.909-7.256,5.244-11.161,2.99c-18.641-10.761-49.784-0.397-85.443,28.439
	c-38.234,30.922-77.251,79.056-109.86,135.538s-54.787,114.338-62.448,162.911c-7.145,45.299-0.55,77.453,18.091,88.215
	c3.908,2.256,5.246,7.253,2.99,11.16C137.647,477.333,134.901,478.798,132.077,478.798z"/>
<path style="fill:#053847;" d="M256,359.489c-67.175,0-130.453-10.108-178.175-28.463C27.638,311.724,0,285.078,0,256h16.34
	c0,42.088,96.301,87.149,239.66,87.149S495.66,298.087,495.66,256H512c0,29.078-27.638,55.724-77.825,75.027
	C386.453,349.381,323.175,359.489,256,359.489z"/>
<path style="fill:#4BBCD6;" d="M384,477.702l-8.17-14.151c18.641-10.763,25.236-42.917,18.091-88.215
	c-7.66-48.572-29.839-106.428-62.448-162.911S259.848,107.809,221.612,76.888c-35.658-28.838-66.803-39.203-85.442-28.439
	L128,34.298c25.182-14.54,62.077-3.927,103.887,29.886c39.756,32.151,80.149,81.896,113.737,140.072s56.473,118.03,64.438,168.535
	C418.439,425.904,409.183,463.163,384,477.702z"/>
<path style="fill:#9ED9E6;" d="M152.92,484.055c-9.194,0-17.557-2.101-24.92-6.352l8.17-14.151
	c18.641,10.762,49.783,0.395,85.443-28.439c38.236-30.92,77.251-79.055,109.861-135.537s54.787-114.338,62.448-162.911
	c7.145-45.299,0.55-77.453-18.091-88.215l8.17-14.151c25.183,14.54,34.439,51.798,26.063,104.912
	c-7.966,50.505-30.85,110.359-64.438,168.535s-73.981,107.921-113.737,140.072C202.301,471.744,175.176,484.053,152.92,484.055z"/>
<circle style="fill:#fff;" cx="256" cy="256" r="32.681"/>
<g>
</g>
<g>
</g>
<g>
</g>
<g>
</g>
<g>
</g>
<g>
</g>
<g>
</g>
<g>
</g>
<g>
</g>
<g>
</g>
<g>
</g>
<g>
</g>
<g>
</g>
<g>
</g>
<g>
</g>
</svg>
