<svg width="450" height="450" viewBox="0 0 450 450" fill="none" xmlns="http://www.w3.org/2000/svg">
<rect width="450" height="450" fill="#C4C4C4"/>
<path d="M174.509 201V249H168.696V201H174.509ZM186.163 201H193.101L209.413 240.844H209.976L226.288 201H233.226V249H227.788V212.531H227.319L212.319 249H207.069L192.069 212.531H191.601V249H186.163V201ZM277.692 216C277.177 214.422 276.497 213.008 275.653 211.758C274.825 210.492 273.833 209.414 272.677 208.523C271.536 207.633 270.239 206.953 268.786 206.484C267.333 206.016 265.739 205.781 264.005 205.781C261.161 205.781 258.575 206.516 256.247 207.984C253.919 209.453 252.067 211.617 250.692 214.477C249.317 217.336 248.63 220.844 248.63 225C248.63 229.156 249.325 232.664 250.716 235.523C252.106 238.383 253.989 240.547 256.364 242.016C258.739 243.484 261.411 244.219 264.38 244.219C267.13 244.219 269.552 243.633 271.646 242.461C273.755 241.273 275.396 239.602 276.567 237.445C277.755 235.273 278.349 232.719 278.349 229.781L280.13 230.156H265.692V225H283.974V230.156C283.974 234.109 283.13 237.547 281.442 240.469C279.771 243.391 277.458 245.656 274.505 247.266C271.567 248.859 268.192 249.656 264.38 249.656C260.13 249.656 256.396 248.656 253.177 246.656C249.974 244.656 247.474 241.812 245.677 238.125C243.896 234.437 243.005 230.062 243.005 225C243.005 221.203 243.513 217.789 244.528 214.758C245.56 211.711 247.013 209.117 248.888 206.977C250.763 204.836 252.981 203.195 255.544 202.055C258.106 200.914 260.927 200.344 264.005 200.344C266.536 200.344 268.896 200.727 271.083 201.492C273.286 202.242 275.247 203.312 276.966 204.703C278.7 206.078 280.146 207.727 281.302 209.648C282.458 211.555 283.255 213.672 283.692 216H277.692Z" fill="black" fill-opacity="0.4"/>
</svg>
