<svg width="1200" height="600" viewBox="0 0 1200 600" fill="none" xmlns="http://www.w3.org/2000/svg">
<path d="M295.213 154.787C292.569 154.787 290.426 152.644 290.426 150C290.426 125.34 233.999 98.9361 150 98.9361C66.0006 98.9361 9.57422 125.339 9.57422 150C9.57422 152.644 7.43145 154.787 4.78711 154.787C2.14277 154.787 0 152.644 0 150C0 132.962 16.1941 117.349 45.6006 106.039C73.5627 95.284 110.639 89.3613 150 89.3613C189.361 89.3613 226.437 95.284 254.399 106.039C283.806 117.349 300 132.962 300 150C300 152.644 297.857 154.787 295.213 154.787Z" fill="white"/>
<path d="M210.398 283.626C197.357 283.627 181.465 276.414 164.129 262.393C140.834 243.554 117.166 214.407 97.4859 180.319C77.8054 146.232 64.3962 111.161 59.7292 81.5683C54.8214 50.4468 60.2449 28.616 75.0005 20.0964C77.2892 18.7757 80.2189 19.5585 81.5402 21.8484C82.862 24.1382 82.0775 27.0656 79.7882 28.388C68.8658 34.6945 65.0015 53.5341 69.188 80.0765C73.6763 108.537 86.6718 142.437 105.779 175.532C124.885 208.628 147.747 236.831 170.15 254.948C185.633 267.469 199.665 274.047 210.338 274.048C214.068 274.048 217.386 273.245 220.215 271.612C222.503 270.291 225.432 271.075 226.754 273.364C228.076 275.654 227.291 278.582 225.002 279.904C220.687 282.394 215.785 283.625 210.398 283.626Z" fill="#235C6D"/>
<path d="M77.3889 280.546C76.5768 280.546 75.7536 280.339 75 279.904C60.2444 271.384 54.8209 249.553 59.7288 218.432C64.3969 188.839 77.8049 153.768 97.4854 119.681C117.166 85.5932 140.834 56.4457 164.129 37.6072C188.626 17.7955 210.243 11.5764 225 20.0959C227.29 21.4178 228.074 24.3457 226.752 26.6355C225.43 28.926 222.5 29.7082 220.212 28.3875C209.29 22.0822 191.042 28.1549 170.148 45.051C147.745 63.1693 124.884 91.3728 105.777 124.468C86.6702 157.563 73.6752 191.463 69.1864 219.923C64.9998 246.466 68.8641 265.306 79.7866 271.612C82.0764 272.934 82.8604 275.862 81.5385 278.151C80.6526 279.687 79.0436 280.546 77.3889 280.546Z" fill="#127C8D"/>
<path d="M150 210.638C110.64 210.638 73.5627 204.715 45.6006 193.961C16.1941 182.651 0 167.038 0 150H9.57422C9.57422 174.661 66.0006 201.064 150 201.064C233.999 201.064 290.426 174.66 290.426 150H300C300 167.038 283.806 182.651 254.399 193.961C226.437 204.715 189.36 210.638 150 210.638Z" fill="#053847"/>
<path d="M225 279.904L220.213 271.612C231.135 265.305 235 246.465 230.813 219.923C226.325 191.463 213.329 157.563 194.222 124.468C175.116 91.3723 152.255 63.1693 129.851 45.0516C108.957 28.1543 90.7084 22.081 79.7871 28.3881L75 20.0965C89.7551 11.5769 111.373 17.7955 135.871 37.6078C159.166 56.4463 182.834 85.5937 202.514 119.681C222.195 153.769 235.604 188.839 240.271 218.432C245.179 249.553 239.756 271.385 225 279.904Z" fill="#4BBCD6"/>
<path d="M89.6016 283.626C84.2145 283.626 79.3143 282.395 75 279.904L79.7871 271.612C90.7096 277.918 108.957 271.844 129.851 254.949C152.255 236.832 175.116 208.628 194.223 175.533C213.33 142.438 226.325 108.538 230.814 80.0771C235 53.5347 231.136 34.6945 220.213 28.3886L225.001 20.097C239.756 28.6166 245.18 50.4474 240.272 81.5689C235.604 111.162 222.196 146.232 202.515 180.32C182.835 214.407 159.167 243.555 135.872 262.393C118.536 276.412 102.642 283.625 89.6016 283.626Z" fill="#9ED9E6"/>
<path d="M150 169.149C160.576 169.149 169.149 160.576 169.149 150C169.149 139.424 160.576 130.851 150 130.851C139.424 130.851 130.851 139.424 130.851 150C130.851 160.576 139.424 169.149 150 169.149Z" fill="white"/>
<path d="M895.213 454.787C892.569 454.787 890.426 452.644 890.426 450C890.426 425.34 833.999 398.936 750 398.936C666.001 398.936 609.574 425.339 609.574 450C609.574 452.644 607.431 454.787 604.787 454.787C602.143 454.787 600 452.644 600 450C600 432.962 616.194 417.349 645.601 406.039C673.563 395.284 710.639 389.361 750 389.361C789.361 389.361 826.437 395.284 854.399 406.039C883.806 417.349 900 432.962 900 450C900 452.644 897.857 454.787 895.213 454.787Z" fill="white"/>
<path d="M810.398 583.626C797.357 583.627 781.465 576.414 764.129 562.393C740.834 543.554 717.166 514.407 697.486 480.319C677.805 446.232 664.396 411.161 659.729 381.568C654.821 350.447 660.245 328.616 675.001 320.096C677.289 318.776 680.219 319.559 681.54 321.848C682.862 324.138 682.077 327.066 679.788 328.388C668.866 334.694 665.002 353.534 669.188 380.077C673.676 408.537 686.672 442.437 705.779 475.532C724.885 508.628 747.747 536.831 770.15 554.948C785.633 567.469 799.665 574.047 810.338 574.048C814.068 574.048 817.386 573.245 820.215 571.612C822.503 570.291 825.432 571.075 826.754 573.364C828.076 575.654 827.291 578.582 825.002 579.904C820.687 582.394 815.785 583.625 810.398 583.626Z" fill="#235C6D"/>
<path d="M677.389 580.546C676.577 580.546 675.754 580.339 675 579.904C660.244 571.384 654.821 549.553 659.729 518.432C664.397 488.839 677.805 453.768 697.485 419.681C717.166 385.593 740.834 356.446 764.129 337.607C788.626 317.795 810.243 311.576 825 320.096C827.29 321.418 828.074 324.346 826.752 326.636C825.43 328.926 822.5 329.708 820.212 328.387C809.29 322.082 791.042 328.155 770.148 345.051C747.745 363.169 724.884 391.373 705.777 424.468C686.67 457.563 673.675 491.463 669.186 519.923C665 546.466 668.864 565.306 679.787 571.612C682.076 572.934 682.86 575.862 681.539 578.151C680.653 579.687 679.044 580.546 677.389 580.546Z" fill="#127C8D"/>
<path d="M750 510.638C710.64 510.638 673.563 504.715 645.601 493.961C616.194 482.651 600 467.038 600 450H609.574C609.574 474.661 666.001 501.064 750 501.064C833.999 501.064 890.426 474.66 890.426 450H900C900 467.038 883.806 482.651 854.399 493.961C826.437 504.715 789.36 510.638 750 510.638Z" fill="#053847"/>
<path d="M825 579.904L820.213 571.612C831.135 565.305 835 546.465 830.813 519.923C826.325 491.463 813.329 457.563 794.222 424.468C775.116 391.372 752.255 363.169 729.851 345.052C708.957 328.154 690.708 322.081 679.787 328.388L675 320.096C689.755 311.577 711.373 317.795 735.871 337.608C759.166 356.446 782.834 385.594 802.514 419.681C822.195 453.769 835.604 488.839 840.271 518.432C845.179 549.553 839.756 571.385 825 579.904Z" fill="#4BBCD6"/>
<path d="M689.602 583.626C684.214 583.626 679.314 582.395 675 579.904L679.787 571.612C690.71 577.918 708.957 571.844 729.851 554.949C752.255 536.832 775.116 508.628 794.223 475.533C813.33 442.438 826.325 408.538 830.814 380.077C835 353.535 831.136 334.695 820.213 328.389L825.001 320.097C839.756 328.617 845.18 350.447 840.272 381.569C835.604 411.162 822.196 446.232 802.515 480.32C782.835 514.407 759.167 543.555 735.872 562.393C718.536 576.412 702.642 583.625 689.602 583.626Z" fill="#9ED9E6"/>
<path d="M750 469.149C760.576 469.149 769.149 460.576 769.149 450C769.149 439.424 760.576 430.851 750 430.851C739.424 430.851 730.851 439.424 730.851 450C730.851 460.576 739.424 469.149 750 469.149Z" fill="white"/>
<path d="M595.213 454.787C592.569 454.787 590.426 452.644 590.426 450C590.426 425.34 533.999 398.936 450 398.936C366.001 398.936 309.574 425.339 309.574 450C309.574 452.644 307.431 454.787 304.787 454.787C302.143 454.787 300 452.644 300 450C300 432.962 316.194 417.349 345.601 406.039C373.563 395.284 410.639 389.361 450 389.361C489.361 389.361 526.437 395.284 554.399 406.039C583.806 417.349 600 432.962 600 450C600 452.644 597.857 454.787 595.213 454.787Z" fill="white"/>
<path d="M510.398 583.626C497.357 583.627 481.465 576.414 464.129 562.393C440.834 543.554 417.166 514.407 397.486 480.319C377.805 446.232 364.396 411.161 359.729 381.568C354.821 350.447 360.245 328.616 375.001 320.096C377.289 318.776 380.219 319.559 381.54 321.848C382.862 324.138 382.077 327.066 379.788 328.388C368.866 334.694 365.002 353.534 369.188 380.077C373.676 408.537 386.672 442.437 405.779 475.532C424.885 508.628 447.747 536.831 470.15 554.948C485.633 567.469 499.665 574.047 510.338 574.048C514.068 574.048 517.386 573.245 520.215 571.612C522.503 570.291 525.432 571.075 526.754 573.364C528.076 575.654 527.291 578.582 525.002 579.904C520.687 582.394 515.785 583.625 510.398 583.626Z" fill="#235C6D"/>
<path d="M377.389 580.546C376.577 580.546 375.754 580.339 375 579.904C360.244 571.384 354.821 549.553 359.729 518.432C364.397 488.839 377.805 453.768 397.485 419.681C417.166 385.593 440.834 356.446 464.129 337.607C488.626 317.795 510.243 311.576 525 320.096C527.29 321.418 528.074 324.346 526.752 326.636C525.43 328.926 522.5 329.708 520.212 328.387C509.29 322.082 491.042 328.155 470.148 345.051C447.745 363.169 424.884 391.373 405.777 424.468C386.67 457.563 373.675 491.463 369.186 519.923C365 546.466 368.864 565.306 379.787 571.612C382.076 572.934 382.86 575.862 381.539 578.151C380.653 579.687 379.044 580.546 377.389 580.546Z" fill="#127C8D"/>
<path d="M450 510.638C410.64 510.638 373.563 504.715 345.601 493.961C316.194 482.651 300 467.038 300 450H309.574C309.574 474.661 366.001 501.064 450 501.064C533.999 501.064 590.426 474.66 590.426 450H600C600 467.038 583.806 482.651 554.399 493.961C526.437 504.715 489.36 510.638 450 510.638Z" fill="#053847"/>
<path d="M525 579.904L520.213 571.612C531.135 565.305 535 546.465 530.813 519.923C526.325 491.463 513.329 457.563 494.222 424.468C475.116 391.372 452.255 363.169 429.851 345.052C408.957 328.154 390.708 322.081 379.787 328.388L375 320.096C389.755 311.577 411.373 317.795 435.871 337.608C459.166 356.446 482.834 385.594 502.514 419.681C522.195 453.769 535.604 488.839 540.271 518.432C545.179 549.553 539.756 571.385 525 579.904Z" fill="#4BBCD6"/>
<path d="M389.602 583.626C384.214 583.626 379.314 582.395 375 579.904L379.787 571.612C390.71 577.918 408.957 571.844 429.851 554.949C452.255 536.832 475.116 508.628 494.223 475.533C513.33 442.438 526.325 408.538 530.814 380.077C535 353.535 531.136 334.695 520.213 328.389L525.001 320.097C539.756 328.617 545.18 350.447 540.272 381.569C535.604 411.162 522.196 446.232 502.515 480.32C482.835 514.407 459.167 543.555 435.872 562.393C418.536 576.412 402.642 583.625 389.602 583.626Z" fill="#9ED9E6"/>
<path d="M450 469.149C460.576 469.149 469.149 460.576 469.149 450C469.149 439.424 460.576 430.851 450 430.851C439.424 430.851 430.851 439.424 430.851 450C430.851 460.576 439.424 469.149 450 469.149Z" fill="white"/>
<path d="M295.213 454.787C292.569 454.787 290.426 452.644 290.426 450C290.426 425.34 233.999 398.936 150 398.936C66.0006 398.936 9.57422 425.339 9.57422 450C9.57422 452.644 7.43145 454.787 4.78711 454.787C2.14277 454.787 0 452.644 0 450C0 432.962 16.1941 417.349 45.6006 406.039C73.5627 395.284 110.639 389.361 150 389.361C189.361 389.361 226.437 395.284 254.399 406.039C283.806 417.349 300 432.962 300 450C300 452.644 297.857 454.787 295.213 454.787Z" fill="white"/>
<path d="M210.398 583.626C197.357 583.627 181.465 576.414 164.129 562.393C140.834 543.554 117.166 514.407 97.4859 480.319C77.8054 446.232 64.3962 411.161 59.7292 381.568C54.8214 350.447 60.2449 328.616 75.0005 320.096C77.2892 318.776 80.2189 319.559 81.5402 321.848C82.862 324.138 82.0775 327.066 79.7882 328.388C68.8658 334.694 65.0015 353.534 69.188 380.077C73.6763 408.537 86.6718 442.437 105.779 475.532C124.885 508.628 147.747 536.831 170.15 554.948C185.633 567.469 199.665 574.047 210.338 574.048C214.068 574.048 217.386 573.245 220.215 571.612C222.503 570.291 225.432 571.075 226.754 573.364C228.076 575.654 227.291 578.582 225.002 579.904C220.687 582.394 215.785 583.625 210.398 583.626Z" fill="#235C6D"/>
<path d="M77.3889 580.546C76.5768 580.546 75.7536 580.339 75 579.904C60.2444 571.384 54.8209 549.553 59.7288 518.432C64.3969 488.839 77.8049 453.768 97.4854 419.681C117.166 385.593 140.834 356.446 164.129 337.607C188.626 317.795 210.243 311.576 225 320.096C227.29 321.418 228.074 324.346 226.752 326.636C225.43 328.926 222.5 329.708 220.212 328.387C209.29 322.082 191.042 328.155 170.148 345.051C147.745 363.169 124.884 391.373 105.777 424.468C86.6702 457.563 73.6752 491.463 69.1864 519.923C64.9998 546.466 68.8641 565.306 79.7866 571.612C82.0764 572.934 82.8604 575.862 81.5385 578.151C80.6526 579.687 79.0436 580.546 77.3889 580.546Z" fill="#127C8D"/>
<path d="M150 510.638C110.64 510.638 73.5627 504.715 45.6006 493.961C16.1941 482.651 0 467.038 0 450H9.57422C9.57422 474.661 66.0006 501.064 150 501.064C233.999 501.064 290.426 474.66 290.426 450H300C300 467.038 283.806 482.651 254.399 493.961C226.437 504.715 189.36 510.638 150 510.638Z" fill="#053847"/>
<path d="M225 579.904L220.213 571.612C231.135 565.305 235 546.465 230.813 519.923C226.325 491.463 213.329 457.563 194.222 424.468C175.116 391.372 152.255 363.169 129.851 345.052C108.957 328.154 90.7084 322.081 79.7871 328.388L75 320.096C89.7551 311.577 111.373 317.795 135.871 337.608C159.166 356.446 182.834 385.594 202.514 419.681C222.195 453.769 235.604 488.839 240.271 518.432C245.179 549.553 239.756 571.385 225 579.904Z" fill="#4BBCD6"/>
<path d="M89.6016 583.626C84.2145 583.626 79.3143 582.395 75 579.904L79.7871 571.612C90.7096 577.918 108.957 571.844 129.851 554.949C152.255 536.832 175.116 508.628 194.223 475.533C213.33 442.438 226.325 408.538 230.814 380.077C235 353.535 231.136 334.695 220.213 328.389L225.001 320.097C239.756 328.617 245.18 350.447 240.272 381.569C235.604 411.162 222.196 446.232 202.515 480.32C182.835 514.407 159.167 543.555 135.872 562.393C118.536 576.412 102.642 583.625 89.6016 583.626Z" fill="#9ED9E6"/>
<path d="M150 469.149C160.576 469.149 169.149 460.576 169.149 450C169.149 439.424 160.576 430.851 150 430.851C139.424 430.851 130.851 439.424 130.851 450C130.851 460.576 139.424 469.149 150 469.149Z" fill="white"/>
<path d="M1195.21 154.787C1192.57 154.787 1190.43 152.644 1190.43 150C1190.43 125.34 1134 98.9361 1050 98.9361C966.001 98.9361 909.574 125.339 909.574 150C909.574 152.644 907.431 154.787 904.787 154.787C902.143 154.787 900 152.644 900 150C900 132.962 916.194 117.349 945.601 106.039C973.563 95.284 1010.64 89.3613 1050 89.3613C1089.36 89.3613 1126.44 95.284 1154.4 106.039C1183.81 117.349 1200 132.962 1200 150C1200 152.644 1197.86 154.787 1195.21 154.787Z" fill="white"/>
<path d="M1110.4 283.626C1097.36 283.627 1081.47 276.414 1064.13 262.393C1040.83 243.554 1017.17 214.407 997.486 180.319C977.805 146.232 964.396 111.161 959.729 81.5683C954.821 50.4468 960.245 28.616 975.001 20.0964C977.289 18.7757 980.219 19.5585 981.54 21.8484C982.862 24.1382 982.077 27.0656 979.788 28.388C968.866 34.6945 965.002 53.5341 969.188 80.0765C973.676 108.537 986.672 142.437 1005.78 175.532C1024.89 208.628 1047.75 236.831 1070.15 254.948C1085.63 267.469 1099.67 274.047 1110.34 274.048C1114.07 274.048 1117.39 273.245 1120.21 271.612C1122.5 270.291 1125.43 271.075 1126.75 273.364C1128.08 275.654 1127.29 278.582 1125 279.904C1120.69 282.394 1115.78 283.625 1110.4 283.626Z" fill="#235C6D"/>
<path d="M977.389 280.546C976.577 280.546 975.754 280.339 975 279.904C960.244 271.384 954.821 249.553 959.729 218.432C964.397 188.839 977.805 153.768 997.485 119.681C1017.17 85.5932 1040.83 56.4457 1064.13 37.6072C1088.63 17.7955 1110.24 11.5764 1125 20.0959C1127.29 21.4178 1128.07 24.3457 1126.75 26.6355C1125.43 28.926 1122.5 29.7082 1120.21 28.3875C1109.29 22.0822 1091.04 28.1549 1070.15 45.051C1047.75 63.1693 1024.88 91.3728 1005.78 124.468C986.67 157.563 973.675 191.463 969.186 219.923C965 246.466 968.864 265.306 979.787 271.612C982.076 272.934 982.86 275.862 981.539 278.151C980.653 279.687 979.044 280.546 977.389 280.546Z" fill="#127C8D"/>
<path d="M1050 210.638C1010.64 210.638 973.563 204.715 945.601 193.961C916.194 182.651 900 167.038 900 150H909.574C909.574 174.661 966.001 201.064 1050 201.064C1134 201.064 1190.43 174.66 1190.43 150H1200C1200 167.038 1183.81 182.651 1154.4 193.961C1126.44 204.715 1089.36 210.638 1050 210.638Z" fill="#053847"/>
<path d="M1125 279.904L1120.21 271.612C1131.14 265.305 1135 246.465 1130.81 219.923C1126.32 191.463 1113.33 157.563 1094.22 124.468C1075.12 91.3723 1052.25 63.1693 1029.85 45.0516C1008.96 28.1543 990.708 22.081 979.787 28.3881L975 20.0965C989.755 11.5769 1011.37 17.7955 1035.87 37.6078C1059.17 56.4463 1082.83 85.5937 1102.51 119.681C1122.19 153.769 1135.6 188.839 1140.27 218.432C1145.18 249.553 1139.76 271.385 1125 279.904Z" fill="#4BBCD6"/>
<path d="M989.602 283.626C984.214 283.626 979.314 282.395 975 279.904L979.787 271.612C990.71 277.918 1008.96 271.844 1029.85 254.949C1052.26 236.832 1075.12 208.628 1094.22 175.533C1113.33 142.438 1126.32 108.538 1130.81 80.0771C1135 53.5347 1131.14 34.6945 1120.21 28.3886L1125 20.097C1139.76 28.6166 1145.18 50.4474 1140.27 81.5689C1135.6 111.162 1122.2 146.232 1102.52 180.32C1082.83 214.407 1059.17 243.555 1035.87 262.393C1018.54 276.412 1002.64 283.625 989.602 283.626Z" fill="#9ED9E6"/>
<path d="M1050 169.149C1060.58 169.149 1069.15 160.576 1069.15 150C1069.15 139.424 1060.58 130.851 1050 130.851C1039.42 130.851 1030.85 139.424 1030.85 150C1030.85 160.576 1039.42 169.149 1050 169.149Z" fill="white"/>
<path d="M1195.21 454.787C1192.57 454.787 1190.43 452.644 1190.43 450C1190.43 425.34 1134 398.936 1050 398.936C966.001 398.936 909.574 425.339 909.574 450C909.574 452.644 907.431 454.787 904.787 454.787C902.143 454.787 900 452.644 900 450C900 432.962 916.194 417.349 945.601 406.039C973.563 395.284 1010.64 389.361 1050 389.361C1089.36 389.361 1126.44 395.284 1154.4 406.039C1183.81 417.349 1200 432.962 1200 450C1200 452.644 1197.86 454.787 1195.21 454.787Z" fill="white"/>
<path d="M1110.4 583.626C1097.36 583.627 1081.47 576.414 1064.13 562.393C1040.83 543.554 1017.17 514.407 997.486 480.319C977.805 446.232 964.396 411.161 959.729 381.568C954.821 350.447 960.245 328.616 975.001 320.096C977.289 318.776 980.219 319.559 981.54 321.848C982.862 324.138 982.077 327.066 979.788 328.388C968.866 334.694 965.002 353.534 969.188 380.077C973.676 408.537 986.672 442.437 1005.78 475.532C1024.89 508.628 1047.75 536.831 1070.15 554.948C1085.63 567.469 1099.67 574.047 1110.34 574.048C1114.07 574.048 1117.39 573.245 1120.21 571.612C1122.5 570.291 1125.43 571.075 1126.75 573.364C1128.08 575.654 1127.29 578.582 1125 579.904C1120.69 582.394 1115.78 583.625 1110.4 583.626Z" fill="#235C6D"/>
<path d="M977.389 580.546C976.577 580.546 975.754 580.339 975 579.904C960.244 571.384 954.821 549.553 959.729 518.432C964.397 488.839 977.805 453.768 997.485 419.681C1017.17 385.593 1040.83 356.446 1064.13 337.607C1088.63 317.795 1110.24 311.576 1125 320.096C1127.29 321.418 1128.07 324.346 1126.75 326.636C1125.43 328.926 1122.5 329.708 1120.21 328.387C1109.29 322.082 1091.04 328.155 1070.15 345.051C1047.75 363.169 1024.88 391.373 1005.78 424.468C986.67 457.563 973.675 491.463 969.186 519.923C965 546.466 968.864 565.306 979.787 571.612C982.076 572.934 982.86 575.862 981.539 578.151C980.653 579.687 979.044 580.546 977.389 580.546Z" fill="#127C8D"/>
<path d="M1050 510.638C1010.64 510.638 973.563 504.715 945.601 493.961C916.194 482.651 900 467.038 900 450H909.574C909.574 474.661 966.001 501.064 1050 501.064C1134 501.064 1190.43 474.66 1190.43 450H1200C1200 467.038 1183.81 482.651 1154.4 493.961C1126.44 504.715 1089.36 510.638 1050 510.638Z" fill="#053847"/>
<path d="M1125 579.904L1120.21 571.612C1131.14 565.305 1135 546.465 1130.81 519.923C1126.32 491.463 1113.33 457.563 1094.22 424.468C1075.12 391.372 1052.25 363.169 1029.85 345.052C1008.96 328.154 990.708 322.081 979.787 328.388L975 320.096C989.755 311.577 1011.37 317.795 1035.87 337.608C1059.17 356.446 1082.83 385.594 1102.51 419.681C1122.19 453.769 1135.6 488.839 1140.27 518.432C1145.18 549.553 1139.76 571.385 1125 579.904Z" fill="#4BBCD6"/>
<path d="M989.602 583.626C984.214 583.626 979.314 582.395 975 579.904L979.787 571.612C990.71 577.918 1008.96 571.844 1029.85 554.949C1052.26 536.832 1075.12 508.628 1094.22 475.533C1113.33 442.438 1126.32 408.538 1130.81 380.077C1135 353.535 1131.14 334.695 1120.21 328.389L1125 320.097C1139.76 328.617 1145.18 350.447 1140.27 381.569C1135.6 411.162 1122.2 446.232 1102.52 480.32C1082.83 514.407 1059.17 543.555 1035.87 562.393C1018.54 576.412 1002.64 583.625 989.602 583.626Z" fill="#9ED9E6"/>
<path d="M1050 469.149C1060.58 469.149 1069.15 460.576 1069.15 450C1069.15 439.424 1060.58 430.851 1050 430.851C1039.42 430.851 1030.85 439.424 1030.85 450C1030.85 460.576 1039.42 469.149 1050 469.149Z" fill="white"/>
<path d="M895.213 154.787C892.569 154.787 890.426 152.644 890.426 150C890.426 125.34 833.999 98.9361 750 98.9361C666.001 98.9361 609.574 125.339 609.574 150C609.574 152.644 607.431 154.787 604.787 154.787C602.143 154.787 600 152.644 600 150C600 132.962 616.194 117.349 645.601 106.039C673.563 95.284 710.639 89.3613 750 89.3613C789.361 89.3613 826.437 95.284 854.399 106.039C883.806 117.349 900 132.962 900 150C900 152.644 897.857 154.787 895.213 154.787Z" fill="white"/>
<path d="M810.398 283.626C797.357 283.627 781.465 276.414 764.129 262.393C740.834 243.554 717.166 214.407 697.486 180.319C677.805 146.232 664.396 111.161 659.729 81.5683C654.821 50.4468 660.245 28.616 675.001 20.0964C677.289 18.7757 680.219 19.5585 681.54 21.8484C682.862 24.1382 682.077 27.0656 679.788 28.388C668.866 34.6945 665.002 53.5341 669.188 80.0765C673.676 108.537 686.672 142.437 705.779 175.532C724.885 208.628 747.747 236.831 770.15 254.948C785.633 267.469 799.665 274.047 810.338 274.048C814.068 274.048 817.386 273.245 820.215 271.612C822.503 270.291 825.432 271.075 826.754 273.364C828.076 275.654 827.291 278.582 825.002 279.904C820.687 282.394 815.785 283.625 810.398 283.626Z" fill="#235C6D"/>
<path d="M677.389 280.546C676.577 280.546 675.754 280.339 675 279.904C660.244 271.384 654.821 249.553 659.729 218.432C664.397 188.839 677.805 153.768 697.485 119.681C717.166 85.5932 740.834 56.4457 764.129 37.6072C788.626 17.7955 810.243 11.5764 825 20.0959C827.29 21.4178 828.074 24.3457 826.752 26.6355C825.43 28.926 822.5 29.7082 820.212 28.3875C809.29 22.0822 791.042 28.1549 770.148 45.051C747.745 63.1693 724.884 91.3728 705.777 124.468C686.67 157.563 673.675 191.463 669.186 219.923C665 246.466 668.864 265.306 679.787 271.612C682.076 272.934 682.86 275.862 681.539 278.151C680.653 279.687 679.044 280.546 677.389 280.546Z" fill="#127C8D"/>
<path d="M750 210.638C710.64 210.638 673.563 204.715 645.601 193.961C616.194 182.651 600 167.038 600 150H609.574C609.574 174.661 666.001 201.064 750 201.064C833.999 201.064 890.426 174.66 890.426 150H900C900 167.038 883.806 182.651 854.399 193.961C826.437 204.715 789.36 210.638 750 210.638Z" fill="#053847"/>
<path d="M825 279.904L820.213 271.612C831.135 265.305 835 246.465 830.813 219.923C826.325 191.463 813.329 157.563 794.222 124.468C775.116 91.3723 752.255 63.1693 729.851 45.0516C708.957 28.1543 690.708 22.081 679.787 28.3881L675 20.0965C689.755 11.5769 711.373 17.7955 735.871 37.6078C759.166 56.4463 782.834 85.5937 802.514 119.681C822.195 153.769 835.604 188.839 840.271 218.432C845.179 249.553 839.756 271.385 825 279.904Z" fill="#4BBCD6"/>
<path d="M689.602 283.626C684.214 283.626 679.314 282.395 675 279.904L679.787 271.612C690.71 277.918 708.957 271.844 729.851 254.949C752.255 236.832 775.116 208.628 794.223 175.533C813.33 142.438 826.325 108.538 830.814 80.0771C835 53.5347 831.136 34.6945 820.213 28.3886L825.001 20.097C839.756 28.6166 845.18 50.4474 840.272 81.5689C835.604 111.162 822.196 146.232 802.515 180.32C782.835 214.407 759.167 243.555 735.872 262.393C718.536 276.412 702.642 283.625 689.602 283.626Z" fill="#9ED9E6"/>
<path d="M750 169.149C760.576 169.149 769.149 160.576 769.149 150C769.149 139.424 760.576 130.851 750 130.851C739.424 130.851 730.851 139.424 730.851 150C730.851 160.576 739.424 169.149 750 169.149Z" fill="white"/>
<path d="M595.213 154.787C592.569 154.787 590.426 152.644 590.426 150C590.426 125.34 533.999 98.9361 450 98.9361C366.001 98.9361 309.574 125.339 309.574 150C309.574 152.644 307.431 154.787 304.787 154.787C302.143 154.787 300 152.644 300 150C300 132.962 316.194 117.349 345.601 106.039C373.563 95.284 410.639 89.3613 450 89.3613C489.361 89.3613 526.437 95.284 554.399 106.039C583.806 117.349 600 132.962 600 150C600 152.644 597.857 154.787 595.213 154.787Z" fill="white"/>
<path d="M510.398 283.626C497.357 283.627 481.465 276.414 464.129 262.393C440.834 243.554 417.166 214.407 397.486 180.319C377.805 146.232 364.396 111.161 359.729 81.5683C354.821 50.4468 360.245 28.616 375.001 20.0964C377.289 18.7757 380.219 19.5585 381.54 21.8484C382.862 24.1382 382.077 27.0656 379.788 28.388C368.866 34.6945 365.002 53.5341 369.188 80.0765C373.676 108.537 386.672 142.437 405.779 175.532C424.885 208.628 447.747 236.831 470.15 254.948C485.633 267.469 499.665 274.047 510.338 274.048C514.068 274.048 517.386 273.245 520.215 271.612C522.503 270.291 525.432 271.075 526.754 273.364C528.076 275.654 527.291 278.582 525.002 279.904C520.687 282.394 515.785 283.625 510.398 283.626Z" fill="#235C6D"/>
<path d="M377.389 280.546C376.577 280.546 375.754 280.339 375 279.904C360.244 271.384 354.821 249.553 359.729 218.432C364.397 188.839 377.805 153.768 397.485 119.681C417.166 85.5932 440.834 56.4457 464.129 37.6072C488.626 17.7955 510.243 11.5764 525 20.0959C527.29 21.4178 528.074 24.3457 526.752 26.6355C525.43 28.926 522.5 29.7082 520.212 28.3875C509.29 22.0822 491.042 28.1549 470.148 45.051C447.745 63.1693 424.884 91.3728 405.777 124.468C386.67 157.563 373.675 191.463 369.186 219.923C365 246.466 368.864 265.306 379.787 271.612C382.076 272.934 382.86 275.862 381.539 278.151C380.653 279.687 379.044 280.546 377.389 280.546Z" fill="#127C8D"/>
<path d="M450 210.638C410.64 210.638 373.563 204.715 345.601 193.961C316.194 182.651 300 167.038 300 150H309.574C309.574 174.661 366.001 201.064 450 201.064C533.999 201.064 590.426 174.66 590.426 150H600C600 167.038 583.806 182.651 554.399 193.961C526.437 204.715 489.36 210.638 450 210.638Z" fill="#053847"/>
<path d="M525 279.904L520.213 271.612C531.135 265.305 535 246.465 530.813 219.923C526.325 191.463 513.329 157.563 494.222 124.468C475.116 91.3723 452.255 63.1693 429.851 45.0516C408.957 28.1543 390.708 22.081 379.787 28.3881L375 20.0965C389.755 11.5769 411.373 17.7955 435.871 37.6078C459.166 56.4463 482.834 85.5937 502.514 119.681C522.195 153.769 535.604 188.839 540.271 218.432C545.179 249.553 539.756 271.385 525 279.904Z" fill="#4BBCD6"/>
<path d="M389.602 283.626C384.214 283.626 379.314 282.395 375 279.904L379.787 271.612C390.71 277.918 408.957 271.844 429.851 254.949C452.255 236.832 475.116 208.628 494.223 175.533C513.33 142.438 526.325 108.538 530.814 80.0771C535 53.5347 531.136 34.6945 520.213 28.3886L525.001 20.097C539.756 28.6166 545.18 50.4474 540.272 81.5689C535.604 111.162 522.196 146.232 502.515 180.32C482.835 214.407 459.167 243.555 435.872 262.393C418.536 276.412 402.642 283.625 389.602 283.626Z" fill="#9ED9E6"/>
<path d="M450 169.149C460.576 169.149 469.149 160.576 469.149 150C469.149 139.424 460.576 130.851 450 130.851C439.424 130.851 430.851 139.424 430.851 150C430.851 160.576 439.424 169.149 450 169.149Z" fill="white"/>
</svg>
